<?xml version="1.0" encoding="utf-8"?>
<!-- Generator: Adobe Illustrator 16.0.0, SVG Export Plug-In . SVG Version: 6.00 Build 0)  -->
<!DOCTYPE svg PUBLIC "-//W3C//DTD SVG 1.1//EN" "http://www.w3.org/Graphics/SVG/1.1/DTD/svg11.dtd">
<svg version="1.1" id="Layer_1" xmlns="http://www.w3.org/2000/svg" xmlns:xlink="http://www.w3.org/1999/xlink" x="0px" y="0px"
	 width="1200px" height="791px" viewBox="0 0 1200 791" enable-background="new 0 0 1200 791" xml:space="preserve">
<g>
	<path fill="#72D0EB" d="M1449.094,402.011c0,11.046-8.955,20-20,20h-165c-11.047,0-20-8.954-20-20v-12c0-11.046,8.953-20,20-20h165
		c11.045,0,20,8.954,20,20V402.011z"/>
	<polygon fill="#72D0EB" points="1479.941,370.087 1440.561,434.011 1429.598,434.011 1429.598,370.087 	"/>
</g>
<path fill="#72D0EB" d="M233.123,256.613c0,11.046-8.954,20-20,20h-165c-11.046,0-20-8.954-20-20v-10c0-11.046,8.954-20,20-20h165
	c11.046,0,20,8.954,20,20V256.613z"/>
<rect x="1.123" y="0.613" fill="#72D0EB" width="1200" height="112.135"/>
<polygon fill="#72D0EB" points="533.123,150.613 400.125,112.613 400.125,79.613 533.123,79.613 "/>
<polygon fill="#72D0EB" points="263.97,226.689 224.589,276.613 213.627,276.613 213.627,226.689 "/>
<circle fill="#58595B" cx="115.236" cy="106.602" r="70"/>
<g>
	<text transform="matrix(1 0 0 1 231.7964 84.4653)" fill="#58595B" font-family="'DINPro-Regular'" font-size="18">skupština</text>
</g>
<g>
	<text transform="matrix(1 0 0 1 414.4634 84.4653)" fill="#58595B" font-family="'DINPro-Bold'" font-size="18">ministarstva</text>
</g>
<g>
	<text transform="matrix(1 0 0 1 745.7905 84.4653)" fill="#58595B" font-family="'DINPro-Regular'" font-size="18">ostali</text>
</g>
<g>
	<text transform="matrix(1 0 0 1 547.1274 84.4653)" fill="#58595B" font-family="'DINPro-Regular'" font-size="18">lokalna samouprava</text>
</g>
<text transform="matrix(1 0 0 1 342.7974 84.4653)" fill="#58595B" font-family="'DINPro-Regular'" font-size="18">vlada</text>
<text transform="matrix(1 0 0 1 83.4468 87.395)"><tspan x="0" y="0" fill="#72D0EB" font-family="'DINPro-Regular'" font-size="18.4099">izveštaj</tspan><tspan x="-20.361" y="24" fill="#72D0EB" font-family="'DINPro-Regular'" font-size="18.4099">Zaštitnika</tspan><tspan x="-11.157" y="48" fill="#72D0EB" font-family="'DINPro-Regular'" font-size="18.4099">Građana</tspan></text>
<g>
	<g>
		<path fill="#58595B" d="M326.5,71.613c0,5.333,0,10.667,0,16c0,0.806,1.25,0.806,1.25,0c0-5.333,0-10.667,0-16
			C327.75,70.807,326.5,70.807,326.5,71.613L326.5,71.613z"/>
	</g>
</g>
<g>
	<g>
		<path fill="#58595B" d="M399.5,71.613c0,5.333,0,10.667,0,16c0,0.806,1.25,0.806,1.25,0c0-5.333,0-10.667,0-16
			C400.75,70.807,399.5,70.807,399.5,71.613L399.5,71.613z"/>
	</g>
</g>
<g>
	<g>
		<path fill="#58595B" d="M532.5,71.613c0,5.333,0,10.667,0,16c0,0.806,1.25,0.806,1.25,0c0-5.333,0-10.667,0-16
			C533.75,70.807,532.5,70.807,532.5,71.613L532.5,71.613z"/>
	</g>
</g>
<g>
	<g>
		<path fill="#58595B" d="M731,71.613c0,5.333,0,10.667,0,16c0,0.806,1.25,0.806,1.25,0c0-5.333,0-10.667,0-16
			C732.25,70.807,731,70.807,731,71.613L731,71.613z"/>
	</g>
</g>
<path fill="#58595B" d="M982.325,81.854c0,8.975-7.276,16.25-16.25,16.25h-56.218c-8.974,0-16.25-7.275-16.25-16.25l0,0
	c0-8.975,7.276-16.25,16.25-16.25h56.218C975.048,65.604,982.325,72.88,982.325,81.854L982.325,81.854z"/>
<text transform="matrix(1 0 0 1 905.686 87.0205)" fill="#72D0EB" font-family="'DINPro-Medium'" font-size="14">uporedi</text>
<path fill="#F1F2F2" stroke="#58595B" stroke-miterlimit="10" d="M1189.373,81.854c0,8.975-7.276,16.25-16.25,16.25h-155.266
	c-8.974,0-16.25-7.275-16.25-16.25l0,0c0-8.975,7.276-16.25,16.25-16.25h155.266C1182.096,65.604,1189.373,72.88,1189.373,81.854
	L1189.373,81.854z"/>
<g>
	<path fill="#F1F2F2" stroke="#58595B" stroke-width="0.75" stroke-miterlimit="10" d="M1175.994,90.57
		c0.319,0.385,0.266,0.955-0.119,1.273l0,0c-0.384,0.318-0.954,0.265-1.273-0.119l-9.117-11c-0.319-0.385-0.266-0.955,0.118-1.273
		l0,0c0.385-0.318,0.955-0.265,1.273,0.119L1175.994,90.57z"/>
	<g>
		<circle fill="#F1F2F2" stroke="#58595B" stroke-width="0.75" stroke-miterlimit="10" cx="1163.93" cy="77.759" r="7.415"/>
		<circle fill="#F1F2F2" stroke="#58595B" stroke-width="0.75" stroke-miterlimit="10" cx="1163.93" cy="77.759" r="6.006"/>
	</g>
</g>
<text transform="matrix(1 0 0 1 1015.6226 87.1118)" fill="#58595B" font-family="'DINPro-Light'" font-size="18">Pretrazite</text>
<g>
	<g>
		<text transform="matrix(1 0 0 1 1007.5747 36.6855)" fill="#58595B" font-family="'DINPro-Regular'" font-size="15.3662">lat en hun slo rus rom alb</text>
	</g>
	
		<line fill="none" stroke="#58595B" stroke-width="0.6403" stroke-miterlimit="10" x1="1007.039" y1="39.435" x2="1025.286" y2="39.435"/>
	
		<line fill="none" stroke="#58595B" stroke-width="0.6403" stroke-miterlimit="10" x1="1029.448" y1="39.435" x2="1044.814" y2="39.435"/>
	
		<line fill="none" stroke="#58595B" stroke-width="0.6403" stroke-miterlimit="10" x1="1050.576" y1="39.435" x2="1074.585" y2="39.435"/>
	
		<line fill="none" stroke="#58595B" stroke-width="0.6403" stroke-miterlimit="10" x1="1079.708" y1="39.435" x2="1099.236" y2="39.435"/>
	
		<line fill="none" stroke="#58595B" stroke-width="0.6403" stroke-miterlimit="10" x1="1104.038" y1="39.435" x2="1126.447" y2="39.435"/>
	
		<line fill="none" stroke="#58595B" stroke-width="0.6403" stroke-miterlimit="10" x1="1131.249" y1="39.435" x2="1158.139" y2="39.435"/>
	
		<line fill="none" stroke="#58595B" stroke-width="0.6403" stroke-miterlimit="10" x1="1161.981" y1="39.435" x2="1182.79" y2="39.435"/>
</g>
<rect x="43.244" y="241.74" fill="none" width="194.661" height="521.669"/>
<text transform="matrix(1 0 0 1 43.2441 250.2842)"><tspan x="0" y="0" fill="#58595B" font-family="'DINPro-Medium'" font-size="12">ОСНОВНИ СТАТИСТИЧКИ ПОДАЦИ </tspan><tspan x="0" y="14.4" fill="#58595B" font-family="'DINPro-Medium'" font-size="12">О РАДУ ЗАШТИТНИКА ГРАЂАНА</tspan><tspan x="0" y="43.2" fill="#58595B" font-family="'DINPro-Medium'" font-size="12">I ДЕО: ПРАВНИ ОКВИР И </tspan><tspan x="0" y="57.6" fill="#58595B" font-family="'DINPro-Medium'" font-size="12">ДЕЛОКРУГ РАДА ЗАШТИТНИКА </tspan><tspan x="0" y="72" fill="#58595B" font-family="'DINPro-Medium'" font-size="12">ГРАЂАНА</tspan><tspan x="0" y="99.6" fill="#939598" font-family="'DINPro-Medium'" font-size="11">1.1. ПРАВНИ ОКВИР</tspan><tspan x="0" y="126" fill="#939598" font-family="'DINPro-Medium'" font-size="11">1.2. НАДЛЕЖНОСТ, ОБУХВАТ И </tspan><tspan x="0" y="139.2" fill="#939598" font-family="'DINPro-Medium'" font-size="11">НАЧИН РАДА</tspan><tspan x="0" y="168" fill="#58595B" font-family="'DINPro-Medium'" font-size="12">II ДЕО: ПОСЕБАН ОСВРТ НА </tspan><tspan x="0" y="182.4" fill="#58595B" font-family="'DINPro-Medium'" font-size="12">ИЗБЕГЛИЧКУ КРИЗУ</tspan><tspan x="0" y="211.2" fill="#58595B" font-family="'DINPro-Medium'" font-size="12">III ДЕО: ПРЕГЛЕД ПРЕМА </tspan><tspan x="0" y="225.6" fill="#58595B" font-family="'DINPro-Medium'" font-size="12">ОБЛАСТИМА / РЕСОРИМА</tspan><tspan x="0" y="253.2" fill="#939598" font-family="'DINPro-Medium'" font-size="11">3.1. ПРАВА ДЕТЕТА</tspan><tspan x="0" y="279.6" fill="#939598" font-family="'DINPro-Medium'" font-size="11">3.2. ПРАВА НАЦИОНАЛНИХ МАЊИНА</tspan><tspan x="0" y="307.2" fill="#939598" font-family="'DINPro-Medium'" font-size="11">3.3. РОДНА РАВНОПРАВНОСТ И </tspan><tspan x="0" y="320.4" fill="#939598" font-family="'DINPro-Medium'" font-size="11">ПРАВА ЛГБТИ ОСОБА</tspan><tspan x="0" y="346.8" fill="#939598" font-family="'DINPro-Medium'" font-size="11">3.4. ПРАВА ОСОБА СА </tspan><tspan x="0" y="360" fill="#939598" font-family="'DINPro-Medium'" font-size="11">ИНВАЛИДИТЕТОМ И ПРАВА </tspan><tspan x="0" y="373.2" fill="#939598" font-family="'DINPro-Medium'" font-size="11">СТАРИЈИХ</tspan><tspan x="0" y="399.6" fill="#939598" font-family="'DINPro-Medium'" font-size="11">3.5. ПРАВА ЛИЦА ЛИШЕНИХ </tspan><tspan x="0" y="412.8" fill="#939598" font-family="'DINPro-Medium'" font-size="11">СЛОБОДЕ, ПОЛИЦИЈСКА </tspan><tspan x="0" y="426" fill="#939598" font-family="'DINPro-Medium'" font-size="11">ОВЛАШЋЕЊА И ПРЕВЕНЦИЈА </tspan><tspan x="0" y="439.2" fill="#939598" font-family="'DINPro-Medium'" font-size="11">ТОРТУРЕ</tspan><tspan x="0" y="465.6" fill="#939598" font-family="'DINPro-Medium'" font-size="11">3.6. РЕСОР ДРЖАВНЕ УПРАВЕ</tspan></text>
<g>
	<rect x="308.733" y="231.746" fill="none" width="784.258" height="486.659"/>
	<text transform="matrix(1 0 0 1 308.7329 240.2896)"><tspan x="0" y="0" fill="#58595B" font-family="'DINPro-Medium'" font-size="12">ОСНОВНИ СТАТИСТИЧКИ ПОДАЦИ О РАДУ ЗАШТИТНИКА ГРАЂАНА</tspan><tspan x="0" y="28.8" fill="#58595B" font-family="'DINPro-Medium'" font-size="12">Заштитник грађана већ је у претходном периоду достигао максималну ефикасност у постојећим околностима, што је констатовано у </tspan><tspan x="0" y="43.2" fill="#58595B" font-family="'DINPro-Medium'" font-size="12">претходним годишњим извештајима. У условима повећаних очекивања грађана, нових надлежности и веће институционалне улоге </tspan><tspan x="0" y="57.6" fill="#58595B" font-family="'DINPro-Medium'" font-size="12">Заштитника грађана, нужно је повећање капацитета Стручне службе, промена организације и унапређивање законског оквира за рад.</tspan><tspan x="0" y="86.4" fill="#58595B" font-family="'DINPro-Medium'" font-size="12">Табела  1 – Подаци о извршењу препорука у 2015.</tspan></text>
</g>
<rect x="1.123" y="0.613" fill="none" stroke="#000000" stroke-miterlimit="10" width="1200" height="791"/>
<path fill="#72D0EB" d="M1591.627,657.011c0,11.046-8.955,20-20,20h-133c-11.047,0-20-8.954-20-20V389.633c0-11.046,8.953-20,20-20
	h133c11.045,0,20,8.954,20,20V657.011z"/>
<rect x="1220.887" y="0.011" fill="#72D0EB" width="1200" height="112.135"/>
<polygon fill="#72D0EB" points="1752.887,150.011 1619.889,112.011 1619.889,79.011 1752.887,79.011 "/>
<circle fill="#58595B" cx="1335" cy="106" r="70"/>
<g>
	<text transform="matrix(1 0 0 1 1451.5605 83.8638)" fill="#58595B" font-family="'DINPro-Regular'" font-size="18">skupština</text>
</g>
<g>
	<text transform="matrix(1 0 0 1 1634.2266 83.8638)" fill="#58595B" font-family="'DINPro-Bold'" font-size="18">ministarstva</text>
</g>
<g>
	<text transform="matrix(1 0 0 1 1965.5527 83.8638)" fill="#58595B" font-family="'DINPro-Regular'" font-size="18">ostali</text>
</g>
<g>
	<text transform="matrix(1 0 0 1 1766.8906 83.8638)" fill="#58595B" font-family="'DINPro-Regular'" font-size="18">lokalna samouprava</text>
</g>
<text transform="matrix(1 0 0 1 1562.5605 83.8638)" fill="#58595B" font-family="'DINPro-Regular'" font-size="18">vlada</text>
<text transform="matrix(1 0 0 1 1303.21 86.7935)"><tspan x="0" y="0" fill="#72D0EB" font-family="'DINPro-Regular'" font-size="18.4099">izveštaj</tspan><tspan x="-20.361" y="24" fill="#72D0EB" font-family="'DINPro-Regular'" font-size="18.4099">Zaštitnika</tspan><tspan x="-11.157" y="48" fill="#72D0EB" font-family="'DINPro-Regular'" font-size="18.4099">Građana</tspan></text>
<g>
	<g>
		<path fill="#58595B" d="M1546.264,71.011c0,5.333,0,10.667,0,16c0,0.806,1.25,0.806,1.25,0c0-5.333,0-10.667,0-16
			C1547.514,70.205,1546.264,70.205,1546.264,71.011L1546.264,71.011z"/>
	</g>
</g>
<g>
	<g>
		<path fill="#58595B" d="M1619.264,71.011c0,5.333,0,10.667,0,16c0,0.806,1.25,0.806,1.25,0c0-5.333,0-10.667,0-16
			C1620.514,70.205,1619.264,70.205,1619.264,71.011L1619.264,71.011z"/>
	</g>
</g>
<g>
	<g>
		<path fill="#58595B" d="M1752.264,71.011c0,5.333,0,10.667,0,16c0,0.806,1.25,0.806,1.25,0c0-5.333,0-10.667,0-16
			C1753.514,70.205,1752.264,70.205,1752.264,71.011L1752.264,71.011z"/>
	</g>
</g>
<g>
	<g>
		<path fill="#58595B" d="M1950.764,71.011c0,5.333,0,10.667,0,16c0,0.806,1.25,0.806,1.25,0c0-5.333,0-10.667,0-16
			C1952.014,70.205,1950.764,70.205,1950.764,71.011L1950.764,71.011z"/>
	</g>
</g>
<path fill="#58595B" d="M2202.088,81.253c0,8.975-7.275,16.25-16.25,16.25h-56.217c-8.975,0-16.25-7.275-16.25-16.25l0,0
	c0-8.975,7.275-16.25,16.25-16.25h56.217C2194.813,65.003,2202.088,72.278,2202.088,81.253L2202.088,81.253z"/>
<text transform="matrix(1 0 0 1 2125.4492 86.4189)" fill="#72D0EB" font-family="'DINPro-Medium'" font-size="14">uporedi</text>
<path fill="#F1F2F2" stroke="#58595B" stroke-miterlimit="10" d="M2409.137,81.253c0,8.975-7.277,16.25-16.25,16.25h-155.266
	c-8.975,0-16.25-7.275-16.25-16.25l0,0c0-8.975,7.275-16.25,16.25-16.25h155.266C2401.859,65.003,2409.137,72.278,2409.137,81.253
	L2409.137,81.253z"/>
<g>
	<path fill="#F1F2F2" stroke="#58595B" stroke-width="0.75" stroke-miterlimit="10" d="M2395.758,89.969
		c0.318,0.385,0.266,0.955-0.119,1.273l0,0c-0.385,0.318-0.955,0.265-1.273-0.119l-9.117-11c-0.32-0.385-0.266-0.955,0.117-1.273
		l0,0c0.385-0.318,0.955-0.265,1.273,0.119L2395.758,89.969z"/>
	<g>
		<circle fill="#F1F2F2" stroke="#58595B" stroke-width="0.75" stroke-miterlimit="10" cx="2383.693" cy="77.157" r="7.415"/>
		<circle fill="#F1F2F2" stroke="#58595B" stroke-width="0.75" stroke-miterlimit="10" cx="2383.694" cy="77.157" r="6.006"/>
	</g>
</g>
<text transform="matrix(1 0 0 1 2235.3857 86.5103)" fill="#58595B" font-family="'DINPro-Light'" font-size="18">Pretrazite</text>
<g>
	<g>
		<text transform="matrix(1 0 0 1 2227.3379 36.084)" fill="#58595B" font-family="'DINPro-Regular'" font-size="15.3662">lat en hun slo rus rom alb</text>
	</g>
	
		<line fill="none" stroke="#58595B" stroke-width="0.6403" stroke-miterlimit="10" x1="2226.803" y1="38.833" x2="2245.049" y2="38.833"/>
	
		<line fill="none" stroke="#58595B" stroke-width="0.6403" stroke-miterlimit="10" x1="2249.211" y1="38.833" x2="2264.578" y2="38.833"/>
	
		<line fill="none" stroke="#58595B" stroke-width="0.6403" stroke-miterlimit="10" x1="2270.34" y1="38.833" x2="2294.35" y2="38.833"/>
	
		<line fill="none" stroke="#58595B" stroke-width="0.6403" stroke-miterlimit="10" x1="2299.473" y1="38.833" x2="2319" y2="38.833"/>
	
		<line fill="none" stroke="#58595B" stroke-width="0.6403" stroke-miterlimit="10" x1="2323.801" y1="38.833" x2="2346.211" y2="38.833"/>
	
		<line fill="none" stroke="#58595B" stroke-width="0.6403" stroke-miterlimit="10" x1="2351.012" y1="38.833" x2="2377.902" y2="38.833"/>
	
		<line fill="none" stroke="#58595B" stroke-width="0.6403" stroke-miterlimit="10" x1="2381.744" y1="38.833" x2="2402.553" y2="38.833"/>
</g>
<rect x="1263.008" y="241.139" fill="none" width="193.42" height="172.539"/>
<text transform="matrix(1 0 0 1 1263.0078 249.6826)"><tspan x="0" y="0" fill="#58595B" font-family="'DINPro-Medium'" font-size="12">ОСНОВНИ СТАТИСТИЧКИ </tspan><tspan x="0" y="14.4" fill="#58595B" font-family="'DINPro-Medium'" font-size="12">ПОДАЦИ О РАДУ ЗАШТИТНИКА </tspan><tspan x="0" y="28.8" fill="#58595B" font-family="'DINPro-Medium'" font-size="12">ГРАЂАНА</tspan><tspan x="0" y="57.6" fill="#58595B" font-family="'DINPro-Medium'" font-size="12">I ДЕО: ПРАВНИ ОКВИР И </tspan><tspan x="0" y="72" fill="#58595B" font-family="'DINPro-Medium'" font-size="12">ДЕЛОКРУГ РАДА ЗАШТИТНИКА </tspan><tspan x="0" y="86.4" fill="#58595B" font-family="'DINPro-Medium'" font-size="12">ГРАЂАНА</tspan><tspan x="0" y="115.2" fill="#58595B" font-family="'DINPro-Medium'" font-size="12">II ДЕО: ПОСЕБАН ОСВРТ НА </tspan><tspan x="0" y="129.6" fill="#58595B" font-family="'DINPro-Medium'" font-size="12">ИЗБЕГЛИЧКУ КРИЗУ</tspan><tspan x="0" y="158.4" fill="#58595B" font-family="'DINPro-Medium'" font-size="12">III ДЕО: ПРЕГЛЕД ПРЕМА </tspan></text>
<rect x="1263.008" y="432.472" fill="none" width="146.086" height="164.539"/>
<text transform="matrix(1 0 0 1 1263.0078 441.0161)"><tspan x="0" y="0" fill="#58595B" font-family="'DINPro-Medium'" font-size="12">IV ДЕО: ПРАВНИ ОКВИР </tspan><tspan x="0" y="14.4" fill="#58595B" font-family="'DINPro-Medium'" font-size="12">ДЕЛОКРУГ РАДА </tspan><tspan x="0" y="28.8" fill="#58595B" font-family="'DINPro-Medium'" font-size="12">ЗАШТИТНИКА </tspan><tspan x="0" y="57.6" fill="#58595B" font-family="'DINPro-Medium'" font-size="12">V ДЕО: ПОСЕБАН ОСВРТ </tspan><tspan x="0" y="72" fill="#58595B" font-family="'DINPro-Medium'" font-size="12">ИЗБЕГЛИЧКУ КРИЗУ</tspan><tspan x="0" y="100.8" fill="#58595B" font-family="'DINPro-Medium'" font-size="12">VI ДЕО: ПРЕГЛЕД ПРЕМА </tspan><tspan x="0" y="115.2" fill="#58595B" font-family="'DINPro-Medium'" font-size="12">ОБЛАСТИМА / РЕСОРИМА</tspan></text>
<rect x="1220.887" y="0.011" fill="none" stroke="#000000" stroke-miterlimit="10" width="1200" height="791"/>
<rect x="1433.432" y="390.14" fill="none" width="148.49" height="268.966"/>
<text transform="matrix(1 0 0 1 1433.4316 397.9722)"><tspan x="0" y="0" fill="#58595B" font-family="'DINPro-Medium'" font-size="11">3.1. ПРАВА ДЕТЕТА</tspan><tspan x="0" y="26.4" fill="#58595B" font-family="'DINPro-Medium'" font-size="11">3.2. ПРАВА НАЦИОНАЛНИХ </tspan><tspan x="0" y="39.6" fill="#58595B" font-family="'DINPro-Medium'" font-size="11">МАЊИНА</tspan><tspan x="0" y="67.2" fill="#58595B" font-family="'DINPro-Medium'" font-size="11">3.3. РОДНА </tspan><tspan x="0" y="80.4" fill="#58595B" font-family="'DINPro-Medium'" font-size="11">РАВНОПРАВНОСТ И ПРАВА </tspan><tspan x="0" y="93.6" fill="#58595B" font-family="'DINPro-Medium'" font-size="11">ЛГБТИ ОСОБА</tspan><tspan x="0" y="120" fill="#58595B" font-family="'DINPro-Medium'" font-size="11">3.4. ПРАВА ОСОБА СА </tspan><tspan x="0" y="133.2" fill="#58595B" font-family="'DINPro-Medium'" font-size="11">ИНВАЛИДИТЕТОМ И ПРАВА </tspan><tspan x="0" y="146.4" fill="#58595B" font-family="'DINPro-Medium'" font-size="11">СТАРИЈИХ</tspan><tspan x="0" y="172.8" fill="#58595B" font-family="'DINPro-Medium'" font-size="11">3.5. ПРАВА ЛИЦА ЛИШЕНИХ </tspan><tspan x="0" y="186" fill="#58595B" font-family="'DINPro-Medium'" font-size="11">СЛОБОДЕ, ПОЛИЦИЈСКА </tspan><tspan x="0" y="199.2" fill="#58595B" font-family="'DINPro-Medium'" font-size="11">ОВЛАШЋЕЊА И </tspan><tspan x="0" y="212.4" fill="#58595B" font-family="'DINPro-Medium'" font-size="11">ПРЕВЕНЦИЈА ТОРТУРЕ</tspan><tspan x="0" y="238.8" fill="#58595B" font-family="'DINPro-Medium'" font-size="11">3.6. РЕСОР ДРЖАВНЕ </tspan><tspan x="0" y="252" fill="#58595B" font-family="'DINPro-Medium'" font-size="11">УПРАВЕ</tspan></text>
<g>
	<path fill="#72D0EB" d="M229.094,1213.345c0,11.047-8.955,20-20,20h-165c-11.047,0-20-8.953-20-20v-12c0-11.045,8.953-20,20-20h165
		c11.045,0,20,8.955,20,20V1213.345z"/>
	<polygon fill="#72D0EB" points="259.942,1181.421 220.561,1245.345 209.598,1245.345 209.598,1181.421 	"/>
</g>
<path fill="#72D0EB" d="M371.627,1468.345c0,11.047-8.955,20-20,20h-133c-11.047,0-20-8.953-20-20v-267.378c0-11.046,8.953-20,20-20
	h133c11.045,0,20,8.954,20,20V1468.345z"/>
<rect x="0.887" y="811.345" fill="#72D0EB" width="1200" height="112.135"/>
<polygon fill="#72D0EB" points="532.887,961.345 399.889,923.345 399.889,890.345 532.887,890.345 "/>
<circle fill="#58595B" cx="115" cy="917.334" r="70"/>
<g>
	<text transform="matrix(1 0 0 1 231.5605 895.1973)" fill="#58595B" font-family="'DINPro-Regular'" font-size="18">skupština</text>
</g>
<g>
	<text transform="matrix(1 0 0 1 414.2266 895.1973)" fill="#58595B" font-family="'DINPro-Bold'" font-size="18">ministarstva</text>
</g>
<g>
	<text transform="matrix(1 0 0 1 745.5537 895.1973)" fill="#58595B" font-family="'DINPro-Regular'" font-size="18">ostali</text>
</g>
<g>
	<text transform="matrix(1 0 0 1 546.8906 895.1973)" fill="#58595B" font-family="'DINPro-Regular'" font-size="18">lokalna samouprava</text>
</g>
<text transform="matrix(1 0 0 1 342.5615 895.1973)" fill="#58595B" font-family="'DINPro-Regular'" font-size="18">vlada</text>
<text transform="matrix(1 0 0 1 83.2104 898.127)"><tspan x="0" y="0" fill="#72D0EB" font-family="'DINPro-Regular'" font-size="18.4099">izveštaj</tspan><tspan x="-20.361" y="24" fill="#72D0EB" font-family="'DINPro-Regular'" font-size="18.4099">Zaštitnika</tspan><tspan x="-11.157" y="48" fill="#72D0EB" font-family="'DINPro-Regular'" font-size="18.4099">Građana</tspan></text>
<g>
	<g>
		<path fill="#58595B" d="M326.264,882.345c0,5.334,0,10.667,0,16c0,0.807,1.25,0.807,1.25,0c0-5.333,0-10.666,0-16
			C327.514,881.539,326.264,881.539,326.264,882.345L326.264,882.345z"/>
	</g>
</g>
<g>
	<g>
		<path fill="#58595B" d="M399.264,882.345c0,5.334,0,10.667,0,16c0,0.807,1.25,0.807,1.25,0c0-5.333,0-10.666,0-16
			C400.514,881.539,399.264,881.539,399.264,882.345L399.264,882.345z"/>
	</g>
</g>
<g>
	<g>
		<path fill="#58595B" d="M532.264,882.345c0,5.334,0,10.667,0,16c0,0.807,1.25,0.807,1.25,0c0-5.333,0-10.666,0-16
			C533.514,881.539,532.264,881.539,532.264,882.345L532.264,882.345z"/>
	</g>
</g>
<g>
	<g>
		<path fill="#58595B" d="M730.764,882.345c0,5.334,0,10.667,0,16c0,0.807,1.25,0.807,1.25,0c0-5.333,0-10.666,0-16
			C732.014,881.539,730.764,881.539,730.764,882.345L730.764,882.345z"/>
	</g>
</g>
<path fill="#58595B" d="M982.088,970.595c0,8.975-7.275,16.25-16.25,16.25h-56.217c-8.975,0-16.25-7.275-16.25-16.25v-78.008
	c0-8.975,7.275-16.25,16.25-16.25h56.217c8.975,0,16.25,7.275,16.25,16.25V970.595z"/>
<text transform="matrix(1 0 0 1 905.4497 897.7529)" fill="#72D0EB" font-family="'DINPro-Medium'" font-size="14">uporedi</text>
<text transform="matrix(1 0 0 1 920.4497 922.2529)"><tspan x="0" y="0" fill="#72D0EB" font-family="'DINPro-Medium'" font-size="14">2016.</tspan><tspan x="0" y="27" fill="#72D0EB" font-family="'DINPro-Medium'" font-size="14">2015.</tspan><tspan x="0" y="54" fill="#72D0EB" font-family="'DINPro-Medium'" font-size="14">2014.</tspan></text>
<path fill="#F1F2F2" stroke="#58595B" stroke-miterlimit="10" d="M1189.137,892.587c0,8.975-7.277,16.25-16.25,16.25h-155.266
	c-8.975,0-16.25-7.275-16.25-16.25l0,0c0-8.975,7.275-16.25,16.25-16.25h155.266C1181.86,876.337,1189.137,883.612,1189.137,892.587
	L1189.137,892.587z"/>
<g>
	<path fill="#F1F2F2" stroke="#58595B" stroke-width="0.75" stroke-miterlimit="10" d="M1175.758,901.303
		c0.318,0.385,0.266,0.954-0.119,1.273l0,0c-0.385,0.318-0.955,0.265-1.273-0.119l-9.117-11.001
		c-0.32-0.385-0.266-0.954,0.117-1.273l0,0c0.385-0.318,0.955-0.265,1.273,0.119L1175.758,901.303z"/>
	<g>
		<circle fill="#F1F2F2" stroke="#58595B" stroke-width="0.75" stroke-miterlimit="10" cx="1163.694" cy="888.491" r="7.415"/>
		<circle fill="#F1F2F2" stroke="#58595B" stroke-width="0.75" stroke-miterlimit="10" cx="1163.695" cy="888.491" r="6.006"/>
	</g>
</g>
<text transform="matrix(1 0 0 1 1015.3862 897.8438)" fill="#58595B" font-family="'DINPro-Light'" font-size="18">Pretrazite</text>
<g>
	<g>
		<text transform="matrix(1 0 0 1 1007.3384 847.418)" fill="#58595B" font-family="'DINPro-Regular'" font-size="15.3662">lat en hun slo rus rom alb</text>
	</g>
	
		<line fill="none" stroke="#58595B" stroke-width="0.6403" stroke-miterlimit="10" x1="1006.803" y1="850.167" x2="1025.049" y2="850.167"/>
	
		<line fill="none" stroke="#58595B" stroke-width="0.6403" stroke-miterlimit="10" x1="1029.211" y1="850.167" x2="1044.579" y2="850.167"/>
	
		<line fill="none" stroke="#58595B" stroke-width="0.6403" stroke-miterlimit="10" x1="1050.34" y1="850.167" x2="1074.35" y2="850.167"/>
	
		<line fill="none" stroke="#58595B" stroke-width="0.6403" stroke-miterlimit="10" x1="1079.473" y1="850.167" x2="1099" y2="850.167"/>
	
		<line fill="none" stroke="#58595B" stroke-width="0.6403" stroke-miterlimit="10" x1="1103.801" y1="850.167" x2="1126.211" y2="850.167"/>
	
		<line fill="none" stroke="#58595B" stroke-width="0.6403" stroke-miterlimit="10" x1="1131.012" y1="850.167" x2="1157.903" y2="850.167"/>
	
		<line fill="none" stroke="#58595B" stroke-width="0.6403" stroke-miterlimit="10" x1="1161.745" y1="850.167" x2="1182.553" y2="850.167"/>
</g>
<rect x="43.008" y="1052.473" fill="none" width="193.42" height="172.538"/>
<text transform="matrix(1 0 0 1 43.0078 1061.0166)"><tspan x="0" y="0" fill="#58595B" font-family="'DINPro-Medium'" font-size="12">ОСНОВНИ СТАТИСТИЧКИ </tspan><tspan x="0" y="14.399" fill="#58595B" font-family="'DINPro-Medium'" font-size="12">ПОДАЦИ О РАДУ ЗАШТИТНИКА </tspan><tspan x="0" y="28.8" fill="#58595B" font-family="'DINPro-Medium'" font-size="12">ГРАЂАНА</tspan><tspan x="0" y="57.601" fill="#58595B" font-family="'DINPro-Medium'" font-size="12">I ДЕО: ПРАВНИ ОКВИР И </tspan><tspan x="0" y="72" fill="#58595B" font-family="'DINPro-Medium'" font-size="12">ДЕЛОКРУГ РАДА ЗАШТИТНИКА </tspan><tspan x="0" y="86.399" fill="#58595B" font-family="'DINPro-Medium'" font-size="12">ГРАЂАНА</tspan><tspan x="0" y="115.2" fill="#58595B" font-family="'DINPro-Medium'" font-size="12">II ДЕО: ПОСЕБАН ОСВРТ НА </tspan><tspan x="0" y="129.601" fill="#58595B" font-family="'DINPro-Medium'" font-size="12">ИЗБЕГЛИЧКУ КРИЗУ</tspan><tspan x="0" y="158.399" fill="#58595B" font-family="'DINPro-Medium'" font-size="12">III ДЕО: ПРЕГЛЕД ПРЕМА </tspan></text>
<rect x="43.008" y="1243.806" fill="none" width="146.086" height="164.539"/>
<text transform="matrix(1 0 0 1 43.0078 1252.3496)"><tspan x="0" y="0" fill="#58595B" font-family="'DINPro-Medium'" font-size="12">IV ДЕО: ПРАВНИ ОКВИР </tspan><tspan x="0" y="14.4" fill="#58595B" font-family="'DINPro-Medium'" font-size="12">ДЕЛОКРУГ РАДА </tspan><tspan x="0" y="28.801" fill="#58595B" font-family="'DINPro-Medium'" font-size="12">ЗАШТИТНИКА </tspan><tspan x="0" y="57.601" fill="#58595B" font-family="'DINPro-Medium'" font-size="12">V ДЕО: ПОСЕБАН ОСВРТ </tspan><tspan x="0" y="72" fill="#58595B" font-family="'DINPro-Medium'" font-size="12">ИЗБЕГЛИЧКУ КРИЗУ</tspan><tspan x="0" y="100.801" fill="#58595B" font-family="'DINPro-Medium'" font-size="12">VI ДЕО: ПРЕГЛЕД ПРЕМА </tspan><tspan x="0" y="115.201" fill="#58595B" font-family="'DINPro-Medium'" font-size="12">ОБЛАСТИМА / РЕСОРИМА</tspan></text>
<rect x="0.887" y="811.345" fill="none" stroke="#000000" stroke-miterlimit="10" width="1200" height="791"/>
<rect x="213.432" y="1201.474" fill="none" width="148.49" height="268.967"/>
<text transform="matrix(1 0 0 1 213.4316 1209.3066)"><tspan x="0" y="0" fill="#58595B" font-family="'DINPro-Medium'" font-size="11">3.1. ПРАВА ДЕТЕТА</tspan><tspan x="0" y="26.399" fill="#58595B" font-family="'DINPro-Medium'" font-size="11">3.2. ПРАВА НАЦИОНАЛНИХ </tspan><tspan x="0" y="39.6" fill="#58595B" font-family="'DINPro-Medium'" font-size="11">МАЊИНА</tspan><tspan x="0" y="67.199" fill="#58595B" font-family="'DINPro-Medium'" font-size="11">3.3. РОДНА </tspan><tspan x="0" y="80.399" fill="#58595B" font-family="'DINPro-Medium'" font-size="11">РАВНОПРАВНОСТ И ПРАВА </tspan><tspan x="0" y="93.6" fill="#58595B" font-family="'DINPro-Medium'" font-size="11">ЛГБТИ ОСОБА</tspan><tspan x="0" y="120" fill="#58595B" font-family="'DINPro-Medium'" font-size="11">3.4. ПРАВА ОСОБА СА </tspan><tspan x="0" y="133.199" fill="#58595B" font-family="'DINPro-Medium'" font-size="11">ИНВАЛИДИТЕТОМ И ПРАВА </tspan><tspan x="0" y="146.399" fill="#58595B" font-family="'DINPro-Medium'" font-size="11">СТАРИЈИХ</tspan><tspan x="0" y="172.799" fill="#58595B" font-family="'DINPro-Medium'" font-size="11">3.5. ПРАВА ЛИЦА ЛИШЕНИХ </tspan><tspan x="0" y="186" fill="#58595B" font-family="'DINPro-Medium'" font-size="11">СЛОБОДЕ, ПОЛИЦИЈСКА </tspan><tspan x="0" y="199.199" fill="#58595B" font-family="'DINPro-Medium'" font-size="11">ОВЛАШЋЕЊА И </tspan><tspan x="0" y="212.399" fill="#58595B" font-family="'DINPro-Medium'" font-size="11">ПРЕВЕНЦИЈА ТОРТУРЕ</tspan><tspan x="0" y="238.799" fill="#58595B" font-family="'DINPro-Medium'" font-size="11">3.6. РЕСОР ДРЖАВНЕ </tspan><tspan x="0" y="252" fill="#58595B" font-family="'DINPro-Medium'" font-size="11">УПРАВЕ</tspan></text>
<line fill="none" stroke="#72D0EB" stroke-miterlimit="10" x1="901.458" y1="929.345" x2="972.958" y2="929.345"/>
<line fill="none" stroke="#72D0EB" stroke-miterlimit="10" x1="901.458" y1="958.345" x2="972.958" y2="958.345"/>
</svg>
